<svg data-v-fde0c5aa="" xmlns="http://www.w3.org/2000/svg" viewBox="0 0 300 300" class="iconLeftSlogan"><!----><defs data-v-fde0c5aa=""><linearGradient data-v-fde0c5aa="" gradientTransform="rotate(25)" id="fd66368e-fb95-48e4-8987-8e839fb45148" x1="0%" y1="0%" x2="100%" y2="0%"><stop data-v-fde0c5aa="" offset="0%" stop-color="#EB4C00" stop-opacity="1"></stop><stop data-v-fde0c5aa="" offset="100%" stop-color="#F2A900" stop-opacity="1"></stop></linearGradient></defs><rect data-v-fde0c5aa="" fill="url(#fd66368e-fb95-48e4-8987-8e839fb45148)" x="0" y="0" width="300px" height="300px" class="logo-background-square"></rect><defs data-v-fde0c5aa=""><!----></defs><g data-v-fde0c5aa="" id="73656b10-d9e1-4ea8-a857-d4a5e2d4f185" fill="#ffffff" transform="matrix(2.608208958691896,0,0,2.608208958691896,114.09679800821675,116.59132484447842)"><path d="M2.77 3.98L0.06 13.78L1.96 13.78L2.53 11.62L5.98 11.62L6.55 13.78L8.46 13.78L5.74 3.98ZM2.98 9.91L4.17 5.52L4.34 5.52L5.53 9.91ZM9.35 3.98L9.35 13.78L11.09 13.78L11.09 12.80L11.28 12.80C11.65 13.38 12.26 13.97 13.50 13.97C15.23 13.97 16.69 12.43 16.69 10.30C16.69 8.18 15.23 6.64 13.50 6.64C12.26 6.64 11.65 7.22 11.28 7.81L11.12 7.81L11.12 3.98ZM13.02 8.20C14.08 8.20 14.92 8.96 14.92 10.30C14.92 11.65 14.08 12.40 13.02 12.40C11.93 12.40 11.12 11.62 11.12 10.30C11.12 8.99 11.93 8.20 13.02 8.20ZM24.86 3.98L23.10 3.98L23.10 7.81L22.93 7.81C22.57 7.22 21.95 6.64 20.72 6.64C18.98 6.64 17.53 8.18 17.53 10.30C17.53 12.43 18.98 13.97 20.72 13.97C21.95 13.97 22.57 13.38 22.93 12.80L23.13 12.80L23.13 13.78L24.86 13.78ZM21.20 8.20C22.29 8.20 23.10 8.99 23.10 10.30C23.10 11.62 22.29 12.40 21.20 12.40C20.13 12.40 19.29 11.65 19.29 10.30C19.29 8.96 20.13 8.20 21.20 8.20ZM26.21 8.43L27.64 9.35C28.07 8.62 28.64 8.15 29.57 8.15C30.52 8.15 31.02 8.67 31.02 9.32L31.02 9.49L28.24 9.80C26.95 9.94 26.07 10.70 26.07 11.80C26.07 13.13 27.10 13.97 28.67 13.97C30.17 13.97 30.69 13.24 30.86 12.94L31.05 12.94L31.05 13.78L32.79 13.78L32.79 9.34C32.79 7.71 31.56 6.64 29.67 6.64C27.97 6.64 27.03 7.39 26.21 8.43ZM27.92 11.70C27.92 11.30 28.24 11.06 28.90 10.98L31.02 10.72L31.02 10.84C31.02 11.79 30.34 12.52 29.11 12.52C28.32 12.52 27.92 12.18 27.92 11.70ZM36.15 3.98L34.38 3.98L34.38 13.78L36.15 13.78ZM39.59 3.98L37.83 3.98L37.83 13.78L39.59 13.78ZM40.94 8.43L42.36 9.35C42.80 8.62 43.37 8.15 44.30 8.15C45.25 8.15 45.75 8.67 45.75 9.32L45.75 9.49L42.97 9.80C41.68 9.94 40.80 10.70 40.80 11.80C40.80 13.13 41.83 13.97 43.40 13.97C44.90 13.97 45.42 13.24 45.58 12.94L45.78 12.94L45.78 13.78L47.52 13.78L47.52 9.34C47.52 7.71 46.28 6.64 44.39 6.64C42.70 6.64 41.76 7.39 40.94 8.43ZM42.64 11.70C42.64 11.30 42.97 11.06 43.62 10.98L45.75 10.72L45.75 10.84C45.75 11.79 45.07 12.52 43.83 12.52C43.05 12.52 42.64 12.18 42.64 11.70ZM49.11 3.98L49.11 13.78L50.88 13.78L50.88 10.19C50.88 8.96 51.48 8.26 52.61 8.26C53.62 8.26 54.18 8.83 54.18 9.80L54.18 13.78L55.94 13.78L55.94 9.63C55.94 7.83 54.78 6.72 53.24 6.72C51.97 6.72 51.32 7.31 51.04 7.95L50.88 7.95L50.88 3.98Z"></path></g><defs data-v-fde0c5aa=""><!----></defs><g data-v-fde0c5aa="" id="3292e179-2dc0-48ab-a072-add34e931696" stroke="none" fill="#ffffff" transform="matrix(0.8093081015296462,0,0,0.8093081015296462,29.492753078378406,109.61026379851957)"><g clip-rule="evenodd"><path d="M12.983 10.59l17.018 88.223-5.872-59.049 29.021-1.892-.054-9.883L64.549 1 53.622 18.977z"></path><path d="M59.389 54.548l5.16-53.541-8.74 39.716-19.612 1.045 1.57 20.462-7.766 36.583 12.057-39.899z"></path><path d="M62.8 67.182l.549-10.453-15.979 3.755-.032 11.797-17.337 26.532 21.68-27.616zM65.711 62.394l14.841-4.731 1.509-12.532-15.899 2.095zM72.07 44.502l10.988-1.417 1.581-10.278-8.079-.373L64.549 1l8.43 30.967z"></path><path d="M87.413 31.294l1.256-9.506-9.544-2.694L64.549 1l14.483 22.437-.422 7z"></path></g></g><defs data-v-fde0c5aa=""><!----></defs><g data-v-fde0c5aa="" id="83f3160d-cd95-45c6-a4cc-67693ed77946" fill="#ffffff" transform="matrix(2.086567166953517,0,0,2.086567166953517,115.37550087725946,160.39110428248844)"><path d="M4.82 5.50L4.82 5.50Q5.27 4.74 5.48 3.53L5.48 3.53L5.48 3.53Q5.71 2.15 5.22 1.57L5.22 1.57L5.22 1.57Q4.93 1.22 4.18 1.27L4.18 1.27L4.18 1.27Q3.24 1.33 2.34 1.85L2.34 1.85L2.34 1.85Q1.09 2.59 0.49 4.34L0.49 4.34L0.49 4.34Q-0.13 6.10 0.49 7.18L0.49 7.18L0.49 7.18Q0.78 7.68 2.15 8.17L2.15 8.17L2.15 8.17Q2.72 8.37 2.93 8.48L2.93 8.48L2.93 8.48Q3.36 8.74 3.45 9.11L3.45 9.11L3.45 9.11Q3.55 9.50 3.21 10.17L3.21 10.17L3.21 10.17Q3.03 10.51 2.75 10.76L2.75 10.76L2.75 10.76Q2.63 10.87 2.47 10.97L2.47 10.97L2.47 10.97Q2.40 11.02 2.38 11.03L2.38 11.03L2.38 11.03Q2.32 11.07 2.26 11.09L2.26 11.09L2.26 11.09Q2.35 11.05 2.23 11.10L2.23 11.10L2.23 11.10Q2.24 11.10 2.30 11.09L2.30 11.09L2.30 11.09Q2.26 11.09 2.21 11.09L2.21 11.09L2.21 11.09Q2.20 11.10 2.11 11.09L2.11 11.09L2.11 11.09Q2.06 11.09 1.91 11.05L1.91 11.05L1.91 11.05Q1.55 10.97 1.25 10.64L1.25 10.64L1.25 10.64Q1.03 10.39 0.94 9.93L0.94 9.93L0.94 9.93Q0.84 9.44 1.07 9.28L1.07 9.28L1.07 9.28Q1.26 9.13 1.24 9.06L1.24 9.06L1.24 9.06Q1.22 8.97 0.98 8.96L0.98 8.96L0.98 8.96Q0.36 8.95-0.05 9.24L-0.05 9.24L-0.05 9.24Q-0.44 9.53-0.51 9.86L-0.51 9.86L-0.51 9.86Q-0.59 10.20-0.44 10.62L-0.44 10.62L-0.44 10.62Q-0.16 11.36 0.70 11.61L0.70 11.61L0.70 11.61Q1.59 11.87 2.86 11.37L2.86 11.37L2.86 11.37Q3.88 10.96 4.44 10.24L4.44 10.24L4.44 10.24Q4.82 9.76 4.91 9.24L4.91 9.24L4.91 9.24Q5.01 8.62 4.63 8.23L4.63 8.23L4.63 8.23Q4.36 7.96 3.80 7.75L3.80 7.75L3.80 7.75Q3.65 7.70 3.34 7.59L3.34 7.59L3.34 7.59Q3.04 7.50 2.91 7.44L2.91 7.44L2.91 7.44Q2.38 7.23 2.10 6.97L2.10 6.97L2.10 6.97Q1.80 6.69 1.70 5.96L1.70 5.96L1.70 5.96Q1.50 4.53 2.45 2.97L2.45 2.97L2.45 2.97Q2.86 2.29 3.37 1.95L3.37 1.95L3.37 1.95Q3.42 1.91 3.51 1.86L3.51 1.86L3.51 1.86Q3.51 1.86 3.56 1.84L3.56 1.84L3.56 1.84Q3.55 1.84 3.59 1.83L3.59 1.83L3.59 1.83Q3.56 1.84 3.60 1.83L3.60 1.83L3.60 1.83Q3.53 1.85 3.45 1.85L3.45 1.85L3.45 1.85Q3.47 1.85 3.46 1.85L3.46 1.85L3.48 1.85L3.48 1.85Q3.53 1.86 3.62 1.89L3.62 1.89L3.62 1.89Q3.63 1.89 3.73 1.96L3.73 1.96L3.73 1.96Q3.79 2.01 3.83 2.06L3.83 2.06L3.83 2.06Q3.95 2.20 4.02 2.45L4.02 2.45L4.02 2.45Q4.14 2.84 4.07 3.49L4.07 3.49L4.07 3.49Q3.95 4.81 3.38 5.76L3.38 5.76L3.38 5.76Q3.29 5.90 3.60 5.91L3.60 5.91L3.60 5.91Q3.79 5.92 3.96 5.89L3.96 5.89L3.96 5.89Q4.66 5.76 4.82 5.50L4.82 5.50ZM13.90 9.01L13.90 9.01Q13.45 9.63 13.32 9.78L13.32 9.78L13.32 9.78Q13.28 9.69 13.25 9.60L13.25 9.60L13.25 9.60Q13.03 8.99 13.18 7.95L13.18 7.95L13.18 7.95Q13.30 7.14 13.70 6.16L13.70 6.16L13.70 6.16Q13.85 5.80 14.05 5.44L14.05 5.44L14.05 5.44Q14.18 5.22 14.35 5.04L14.35 5.04L14.35 5.04Q14.51 4.88 14.75 4.70L14.75 4.70L14.75 4.70Q14.76 4.69 14.77 4.68L14.77 4.68L14.77 4.68Q14.78 4.68 14.81 4.66L14.81 4.66L14.81 4.66Q14.85 4.63 14.92 4.58L14.92 4.58L14.92 4.58Q14.92 4.58 14.93 4.57L14.93 4.57L14.93 4.57Q15.13 4.74 15.10 5.37L15.10 5.37L15.10 5.37Q15.09 5.48 15.52 5.44L15.52 5.44L15.52 5.44Q15.41 5.98 15.19 6.88L15.19 6.88L15.19 6.88Q14.82 7.77 13.90 9.01L13.90 9.01ZM17.02 4.85L17.02 4.85Q17.02 4.72 16.56 4.77L16.56 4.77L16.56 4.77Q16.54 4.17 16.17 4.01L16.17 4.01L16.17 4.01Q15.59 3.75 14.56 4.17L14.56 4.17L14.56 4.17Q13.14 4.74 12.55 5.81L12.55 5.81L12.55 5.81Q11.61 7.56 11.67 9.26L11.67 9.26L11.67 9.26Q11.70 10.25 12.18 10.56L12.18 10.56L12.18 10.56Q12.41 10.71 13.01 10.63L13.01 10.63L13.01 10.63Q13.57 10.55 14.04 10.22L14.04 10.22L14.04 10.22Q14.31 10.04 14.58 9.75L14.58 9.75L14.58 9.75Q14.50 10.31 14.46 10.81L14.46 10.81L14.46 10.81Q14.46 10.88 14.68 10.90L14.68 10.90L14.68 10.90Q14.90 10.90 15.18 10.85L15.18 10.85L15.18 10.85Q15.90 10.71 15.92 10.42L15.92 10.42L15.92 10.42Q16.00 9.17 16.62 6.64L16.62 6.64L16.62 6.64Q16.99 5.73 17.02 4.85L17.02 4.85ZM26.03 8.93L26.03 8.93Q25.77 9.55 25.46 10.01L25.46 10.01L25.46 10.01Q25.33 10.20 25.16 10.36L25.16 10.36L25.16 10.36Q25.14 10.38 25.10 10.42L25.10 10.42L25.10 10.42Q25.09 10.41 25.01 10.37L25.01 10.37L25.01 10.37Q24.73 10.22 24.62 9.84L24.62 9.84L24.62 9.84Q24.48 9.29 24.78 8.35L24.78 8.35L24.78 8.35Q25.06 7.50 25.66 6.51L25.66 6.51L25.66 6.51Q26.20 5.63 26.81 4.98L26.81 4.98L26.81 4.98Q26.95 4.83 27.12 4.68L27.12 4.68L27.12 4.68Q27.11 4.69 27.17 4.63L27.17 4.63L27.17 4.63Q26.99 5.50 26.63 7.18L26.63 7.18L26.63 7.18Q26.36 8.15 26.03 8.93L26.03 8.93ZM24.92 10.55L24.92 10.55L24.92 10.55Q24.89 10.57 24.88 10.57L24.88 10.57L24.88 10.57Q24.88 10.58 24.92 10.55L24.92 10.55ZM28.17 4.00L28.17 4.00Q28.18 3.82 27.58 3.91L27.58 3.91L27.58 3.91Q25.70 4.18 24.04 7.08L24.04 7.08L24.04 7.08Q23.34 8.29 23.17 9.28L23.17 9.28L23.17 9.28Q22.97 10.40 23.56 10.82L23.56 10.82L23.56 10.82Q23.93 11.08 24.60 11.04L24.60 11.04L24.60 11.04Q25.28 11.00 25.87 10.68L25.87 10.68L25.87 10.68Q25.50 12.55 25.25 14.05L25.25 14.05L25.25 14.05Q25.21 14.29 25.83 14.18L25.83 14.18L25.83 14.18Q26.14 14.13 26.39 14.01L26.39 14.01L26.39 14.01Q26.68 13.88 26.69 13.79L26.69 13.79L26.69 13.79Q27.07 11.48 28.05 6.99L28.05 6.99L28.05 6.99Q28.31 6.03 28.66 4.14L28.66 4.14L28.66 4.14Q28.70 3.92 28.17 4.00L28.17 4.00ZM36.85 7.05L36.85 7.05Q36.93 6.66 37.02 6.31L37.02 6.31L37.02 6.31Q37.22 5.80 37.49 5.24L37.49 5.24L37.49 5.24Q37.62 4.99 37.78 4.76L37.78 4.76L37.78 4.76Q37.84 4.68 37.92 4.59L37.92 4.59L37.92 4.59Q37.90 4.61 37.94 4.57L37.94 4.57L37.94 4.57Q37.97 4.59 38.01 4.61L38.01 4.61L38.01 4.61Q38.28 4.82 38.34 5.46L38.34 5.46L38.34 5.46Q38.42 6.01 38.17 6.95L38.17 6.95L38.17 6.95Q37.37 6.97 36.85 7.05L36.85 7.05ZM36.62 10.48L36.62 10.48Q36.62 10.48 36.62 10.48L36.62 10.48L36.62 10.48Q36.62 10.48 36.60 10.49L36.60 10.49L36.60 10.49Q36.61 10.49 36.62 10.48L36.62 10.48ZM38.12 4.42L38.12 4.42L38.12 4.42Q38.12 4.42 38.12 4.41L38.12 4.41L38.12 4.41Q38.12 4.42 38.12 4.42L38.12 4.42ZM39.81 5.11L39.81 5.11Q39.76 4.50 39.43 4.17L39.43 4.17L39.43 4.17Q39.06 3.80 38.08 3.98L38.08 3.98L38.08 3.98Q37.17 4.14 36.63 4.68L36.63 4.68L36.63 4.68Q36.26 5.04 35.97 5.69L35.97 5.69L35.97 5.69Q35.51 6.49 35.27 8.04L35.27 8.04L35.27 8.04Q35.14 8.93 35.15 9.63L35.15 9.63L35.15 9.63Q35.15 10.77 35.86 10.94L35.86 10.94L35.86 10.94Q36.33 11.06 37.16 10.78L37.16 10.78L37.16 10.78Q37.66 10.62 38.12 10.23L38.12 10.23L38.12 10.23Q38.93 9.57 39.08 8.68L39.08 8.68L39.08 8.68Q39.12 8.44 38.50 8.54L38.50 8.54L38.50 8.54Q38.19 8.60 37.95 8.72L37.95 8.72L37.95 8.72Q37.66 8.85 37.65 8.94L37.65 8.94L37.65 8.94Q37.55 9.50 37.13 10.04L37.13 10.04L37.13 10.04Q37.03 10.15 36.88 10.28L36.88 10.28L36.88 10.28Q36.75 10.17 36.67 9.85L36.67 9.85L36.67 9.85Q36.58 9.51 36.61 8.76L36.61 8.76L36.61 8.76Q36.65 8.08 36.76 7.53L36.76 7.53L36.76 7.53Q37.07 7.50 37.60 7.50L37.60 7.50L37.60 7.50Q38.29 7.51 38.45 7.50L38.45 7.50L38.45 7.50Q38.68 7.49 39.01 7.38L39.01 7.38L39.01 7.38Q39.43 7.22 39.48 7.08L39.48 7.08L39.48 7.08Q39.87 5.92 39.81 5.11L39.81 5.11ZM50.66 4.53L50.66 4.53Q50.35 4.35 49.68 4.50L49.68 4.50L49.68 4.50Q49.19 4.62 48.78 4.94L48.78 4.94L48.78 4.94Q48.78 4.94 48.77 4.94L48.77 4.94L48.77 4.94Q48.77 4.94 48.77 4.95L48.77 4.95L48.77 4.95Q48.82 4.53 48.78 4.16L48.78 4.16L48.78 4.16Q48.77 4.07 48.54 4.05L48.54 4.05L48.54 4.05Q48.32 4.05 48.02 4.12L48.02 4.12L48.02 4.12Q47.29 4.29 47.32 4.55L47.32 4.55L47.32 4.55Q47.37 5.05 46.81 7.33L46.81 7.33L46.81 7.33Q46.72 7.73 46.62 8.28L46.62 8.28L46.62 8.28Q46.26 9.37 46.15 10.66L46.15 10.66L46.15 10.66Q46.14 10.73 46.14 10.73L46.14 10.73L46.14 10.73Q46.13 10.90 46.83 10.77L46.83 10.77L46.83 10.77Q47.53 10.63 47.60 10.40L47.60 10.40L47.60 10.40Q47.74 9.87 48.06 8.07L48.06 8.07L48.06 8.07Q48.57 6.54 49.54 5.39L49.54 5.39L49.54 5.39Q49.58 5.61 49.52 5.93L49.52 5.93L49.52 5.93Q49.43 6.43 49.10 7.06L49.10 7.06L49.10 7.06Q48.82 7.59 48.58 7.79L48.58 7.79L48.58 7.79Q48.42 7.94 48.62 8.00L48.62 8.00L48.62 8.00Q48.75 8.04 48.92 8.03L48.92 8.03L48.92 8.03Q49.57 7.96 49.91 7.68L49.91 7.68L49.91 7.68Q50.22 7.40 50.57 6.75L50.57 6.75L50.57 6.75Q50.91 6.10 51.00 5.46L51.00 5.46L51.00 5.46Q51.10 4.79 50.66 4.53L50.66 4.53Z"></path></g></svg>