<svg data-v-423bf9ae="" xmlns="http://www.w3.org/2000/svg" viewBox="0 0 4033 3921" class="iconLeftSlogan"><!----><!----><!----><g data-v-423bf9ae="" id="36bec709-34af-48ef-9b0b-68eab87edbfb" fill="white" transform="matrix(4.261363370821266,0,0,4.261363370821266,3854.0282689056144,-13.977271019119435)"><path d="M6.55 5.17L6.55 5.17L6.55 5.17Q5.05 5.96 3.84 7.29L3.84 7.29L3.84 7.29Q3.99 7.78 4.28 8.34L4.28 8.34L4.28 8.34Q4.58 8.89 4.90 9.52L4.90 9.52L4.90 9.52Q5.75 11.12 6.12 12.25L6.12 12.25L4.94 14.13L4.94 14.13Q2.32 13.44 0.29 12.21L0.29 12.21L0.29 12.21Q-0.34 11.82-0.95 11.40L-0.95 11.40L-0.01 9.69L-0.01 9.69Q2.11 11.16 3.88 11.84L3.88 11.84L3.88 11.84Q3.54 11.02 2.87 9.85L2.87 9.85L2.87 9.85Q2.20 8.68 1.90 8.09L1.90 8.09L1.90 8.09Q1.60 7.49 1.43 6.90L1.43 6.90L1.43 6.90Q2.30 5.82 3.64 4.77L3.64 4.77L3.64 4.77Q4.87 3.81 5.99 3.28L5.99 3.28L8.69 5.08L8.69 5.08Q8.43 6.27 7.48 8.04L7.48 8.04L7.48 8.04Q7.24 8.48 7.06 8.75L7.06 8.75L5.38 7.78L5.38 7.78Q5.94 6.89 6.55 5.17ZM13.45 13.71L12.38 12.50L12.38 12.50Q11.27 13.37 9.83 13.76L9.83 13.76L8.09 12.15L8.09 12.15Q8.09 11.05 8.43 9.98L8.43 9.98L8.43 9.98Q8.76 8.92 9.42 8.06L9.42 8.06L9.42 8.06Q10.08 7.21 11.05 6.64L11.05 6.64L11.05 6.64Q12.03 6.08 13.30 5.96L13.30 5.96L14.22 7.38L14.22 7.38Q14.39 7.11 14.94 6.45L14.94 6.45L16.31 7.63L16.31 7.63Q14.92 9.44 14.01 11.49L14.01 11.49L13.97 11.52L13.97 11.52Q14.78 11.31 15.88 10.80L15.88 10.80L15.88 10.80Q16.97 10.29 17.26 10.14L17.26 10.14L17.57 11.55L17.57 11.55Q16.74 12.15 14.83 13.10L14.83 13.10L14.83 13.10Q14.07 13.48 13.45 13.71L13.45 13.71ZM10.05 11.75L10.05 11.75L10.05 11.75Q11.55 11.34 12.78 9.76L12.78 9.76L12.78 9.76Q13.15 8.96 13.33 7.77L13.33 7.77L13.33 7.77Q11.89 7.91 10.96 9.04L10.96 9.04L10.96 9.04Q10.05 10.16 10.05 11.75ZM19.64 13.34L19.64 13.34L19.64 13.34Q19.11 13.58 18.45 13.76L18.45 13.76L16.72 12.15L16.72 12.15Q16.72 11.05 17.05 9.98L17.05 9.98L17.05 9.98Q17.39 8.92 18.05 8.06L18.05 8.06L18.05 8.06Q18.70 7.21 19.68 6.64L19.68 6.64L19.68 6.64Q20.65 6.08 21.92 5.96L21.92 5.96L22.85 7.38L22.85 7.38Q23.02 7.11 23.56 6.45L23.56 6.45L24.93 7.63L24.93 7.63Q23.55 9.44 22.64 11.49L22.64 11.49L22.60 11.52L22.60 11.52Q23.41 11.31 24.50 10.80L24.50 10.80L24.50 10.80Q25.59 10.29 25.89 10.14L25.89 10.14L26.19 11.55L26.19 11.55Q25.37 12.15 23.45 13.10L23.45 13.10L23.45 13.10Q22.69 13.48 22.08 13.71L22.08 13.71L21.64 13.23L21.64 13.23Q20.66 15.48 20.08 17.36L20.08 17.36L18.48 16.28L18.48 16.28Q19.01 14.76 19.64 13.34ZM18.68 11.75L18.68 11.75L18.68 11.75Q20.17 11.34 21.41 9.76L21.41 9.76L21.41 9.76Q21.77 8.96 21.95 7.77L21.95 7.77L21.95 7.77Q20.51 7.91 19.59 9.04L19.59 9.04L19.59 9.04Q18.68 10.16 18.68 11.75ZM28.63 10.68L28.63 10.68L28.63 10.68Q27.97 10.68 27.59 10.58L27.59 10.58L27.59 10.58Q27.37 11.13 27.31 11.94L27.31 11.94L27.31 11.94Q29.72 11.80 31.96 10.86L31.96 10.86L31.96 10.86Q32.72 10.56 33.42 10.14L33.42 10.14L33.71 11.55L33.71 11.55Q32.41 12.38 30.63 13.01L30.63 13.01L30.63 13.01Q28.74 13.68 27.06 13.76L27.06 13.76L25.33 12.15L25.33 12.15Q25.33 10.22 26.38 8.62L26.38 8.62L26.38 8.62Q27.13 7.52 28.09 6.87L28.09 6.87L28.09 6.87Q29.05 6.23 29.93 5.95L29.93 5.95L32.30 7.91L32.30 7.91Q31.95 9.37 30.97 10.02L30.97 10.02L30.97 10.02Q29.99 10.68 28.63 10.68ZM28.18 9.32L28.18 9.32L28.18 9.32Q28.99 9.32 29.60 8.88L29.60 8.88L29.60 8.88Q30.30 8.34 30.30 7.39L30.30 7.39L30.30 7.39Q28.88 8.16 28.18 9.32ZM33.88 7.11L33.88 7.11L33.88 7.11Q34.55 6.20 35.56 5.22L35.56 5.22L36.86 6.23L36.86 6.23Q36.71 6.87 36.60 7.17L36.60 7.17L36.60 7.17Q38.40 6.97 39.20 6.78L39.20 6.78L39.20 6.78Q40.00 6.58 40.59 6.43L40.59 6.43L40.98 8.09L40.98 8.09Q40.40 8.26 39.77 8.39L39.77 8.39L39.77 8.39Q38.81 9.91 38.16 11.62L38.16 11.62L38.16 11.62Q40.49 10.82 41.59 10.14L41.59 10.14L41.90 11.55L41.90 11.55Q40.61 12.39 38.53 13.27L38.53 13.27L38.53 13.27Q37.86 13.55 37.24 13.76L37.24 13.76L35.76 12.28L35.76 12.28Q36.67 10.19 37.70 8.68L37.70 8.68L37.70 8.68Q36.72 8.76 35.97 8.79L35.97 8.79L35.97 8.79Q35.74 9.21 34.76 10.89L34.76 10.89L33.73 11.55L32.40 10.77L32.40 10.77Q33.56 9.51 33.96 9.00L33.96 9.00L33.96 9.00Q34.37 8.50 34.66 8.13L34.66 8.13L34.66 8.13Q34.26 7.69 33.88 7.11Z"></path></g><!----><g data-v-423bf9ae="" id="d74f95a6-2f69-42c9-8707-34ff9fd72f08" transform="matrix(6.6,0,0,6.6,-367.46998596191406,-69.55993804931632)" stroke="none" fill="white"><path d="M510.7 212.5c-19.8-16.3-38.2-31.4-51.2-46.8 9.1 1.2 18.2 1.9 27.2 1.9 6.2 0 11.9-.4 17.1-1 8.4 20.8 30.3 28.7 49.7 28.7 40.6 0 82.6-34 82.6-90.9 0-25.2-9.6-48.1-27.1-64.7-20-19-49.8-29.1-86-29.1h-2.9c-108.3 1.2-143.4 79.6-143.4 117.8v.4l-8.4-2.7c-48.3-15.5-98.4-31.6-154.4-31.6-51.4 0-93.2 13.8-121 40C69 157 55.8 188.4 55.8 222.8c0 58.5 40.2 121.7 105 121.7 43.4 0 62.8-27.9 63.5-29.1 2.4-3.6 1.5-8.4-2.1-10.8-3.5-2.4-8.4-1.5-10.8 2-.7.9-15.9 22.3-50.7 22.3-43 0-89.4-40.6-89.4-106.1 0-30.1 11.4-57.4 32.2-76.9 24.9-23.4 63-35.7 110.3-35.7 53.6 0 102.4 15.7 149.6 30.8 4.8 1.6 9.5 3 14.2 4.6 6.6 56 45.2 95.3 82.5 133.4 38 38.8 73.9 75.4 73.9 126.9 0 34.4-8.4 60.5-21.8 79.8 2.1-13.5 3.4-27.6 3.4-41.9 0-54.2-32-110.8-79.6-140.9-39.1-24.8-82.1-28.3-120.9-9.9-49.6 23.4-74.2 77.6-61.4 134.8C266.1 482.7 317 547 419.8 547v.5h2.3c7.5 0 31.3-.5 60.1-6.6-10.5 30.9-21.9 51.7-22.1 52.1-2.1 3.8-.7 8.5 3 10.6 1.2.7 2.5 1 3.7 1 2.8 0 5.4-1.4 6.9-4 1-1.8 14.9-27.2 26.4-64 28.4-7.9 59.2-21.5 83-44.8 26.8-26.2 40.4-60.6 40.4-102.1.2-84.4-59.8-133.7-112.8-177.2zm5.1-65.7c0-18.8 12.7-39.9 29.6-39.9 4.4 0 4.5 7.1 4.5 7.9 0 7.9-4.9 16.6-13 23.1-4.5 3.6-11.2 7.6-21 10.4-.1-.5-.1-1-.1-1.5zm6.5-120.6h.3c32.3 0 58.5 8.6 75.6 24.8 14.4 13.6 22.3 32.5 22.3 53.4 0 47.1-34 75.3-66.9 75.3-19.7 0-29.3-7.8-33.7-16.2 12.5-3.5 21.1-8.7 26.9-13.3 11.8-9.5 18.9-22.7 18.9-35.3 0-13.6-8.4-23.6-20.1-23.6-12.6 0-24.4 6.5-33.1 18.4-7.7 10.4-12.1 24-12.1 37.1 0 1.6.1 3 .2 4.5-4.2.5-8.7.7-13.7.7-13 0-26.2-1.5-39.7-4.1-4.5-8.4-7.1-17-7.1-26.1 0-32.3 8.6-57.1 25.6-73.5 20.1-19.5 46.7-21.8 54.4-22.1h2.2zM269 424.3c-11.4-50.7 9.3-96.7 52.8-117.3 14.2-6.7 29.1-10 44.1-10 20.7 0 41.8 6.4 61.8 19 43.2 27.4 72.3 78.7 72.3 127.7 0 22.1-3.3 43.9-8 63.7-21.2 16.9-47.5 24-72 24-93.7 0-139.9-57.7-151-107.1z"></path></g><!----><g data-v-423bf9ae="" id="41b1c67d-d4c2-4530-8c27-8883d3623637" fill="white" transform="matrix(1.4954908241006841,0,0,1.4954908241006841,3848.708650706768,54.75082705826496)"><path d="M2.04 16.24L2.04 16.24L2.04 16.24Q1.37 16.04 1.11 15.85L1.11 15.85L1.11 15.85Q0.85 15.65 0.85 15.36L0.85 15.36L0.85 15.36Q0.85 15.13 0.98 14.73L0.98 14.73L0.98 14.73Q1.11 14.32 1.35 13.77L1.35 13.77L1.35 13.77Q1.60 13.22 1.94 12.54L1.94 12.54L1.94 12.54Q2.28 11.87 2.72 11.10L2.72 11.10L2.72 11.10Q2.35 11.09 2.06 11.08L2.06 11.08L2.06 11.08Q1.78 11.07 1.60 11.07L1.60 11.07L1.60 11.07Q1.68 10.86 2.07 10.71L2.07 10.71L2.07 10.71Q2.46 10.56 3.11 10.44L3.11 10.44L3.11 10.44Q3.65 9.53 4.28 8.71L4.28 8.71L4.28 8.71Q4.90 7.88 5.53 7.19L5.53 7.19L5.53 7.19Q6.16 6.50 6.79 5.97L6.79 5.97L6.79 5.97Q7.42 5.45 7.99 5.14L7.99 5.14L7.99 5.14Q8.01 5.04 8.02 4.97L8.02 4.97L8.02 4.97Q8.02 4.90 8.02 4.87L8.02 4.87L8.02 4.87Q8.22 4.87 8.55 4.97L8.55 4.97L8.55 4.97Q8.88 5.07 9.19 5.21L9.19 5.21L9.19 5.21Q9.51 5.35 9.75 5.49L9.75 5.49L9.75 5.49Q10.00 5.64 10.02 5.74L10.02 5.74L10.02 5.74Q9.56 6.55 9.11 8.17L9.11 8.17L9.11 8.17Q8.67 9.79 8.37 12.04L8.37 12.04L8.37 12.04Q8.30 12.60 8.25 13.31L8.25 13.31L8.25 13.31Q8.20 14.03 8.20 14.91L8.20 14.91L8.20 14.91Q8.20 15.22 8.20 15.54L8.20 15.54L8.20 15.54Q8.20 15.86 8.23 16.21L8.23 16.21L8.23 16.21Q8.20 16.23 8.18 16.23L8.18 16.23L8.18 16.23Q8.15 16.23 8.06 16.23L8.06 16.23L8.06 16.23Q7.87 16.23 7.61 16.16L7.61 16.16L7.61 16.16Q7.35 16.10 7.11 16.01L7.11 16.01L7.11 16.01Q6.86 15.92 6.69 15.81L6.69 15.81L6.69 15.81Q6.51 15.69 6.47 15.61L6.47 15.61L6.47 15.61Q6.45 15.43 6.45 15.25L6.45 15.25L6.45 15.25Q6.45 15.08 6.45 14.88L6.45 14.88L6.45 14.88Q6.45 14.01 6.52 13.12L6.52 13.12L6.52 13.12Q6.58 12.22 6.73 11.27L6.73 11.27L6.73 11.27Q6.54 11.26 6.22 11.23L6.22 11.23L6.22 11.23Q5.89 11.21 5.50 11.20L5.50 11.20L5.50 11.20Q5.10 11.19 4.64 11.16L4.64 11.16L4.64 11.16Q4.19 11.14 3.75 11.13L3.75 11.13L3.75 11.13Q3.42 11.76 3.12 12.38L3.12 12.38L3.12 12.38Q2.83 13.01 2.62 13.64L2.62 13.64L2.62 13.64Q2.38 14.31 2.23 14.98L2.23 14.98L2.23 14.98Q2.09 15.65 2.04 16.24ZM7.45 7.83L7.45 7.83L7.45 7.83Q7.50 7.63 7.58 7.29L7.58 7.29L7.58 7.29Q7.66 6.94 7.73 6.57L7.73 6.57L7.73 6.57Q7.38 6.69 6.95 7.03L6.95 7.03L6.95 7.03Q6.52 7.36 6.07 7.86L6.07 7.86L6.07 7.86Q5.61 8.36 5.15 8.98L5.15 8.98L5.15 8.98Q4.68 9.60 4.24 10.30L4.24 10.30L4.24 10.30Q5.42 10.21 6.92 10.18L6.92 10.18L6.92 10.18Q7.03 9.59 7.16 9.01L7.16 9.01L7.16 9.01Q7.29 8.43 7.45 7.83ZM18.16 15.27L18.16 15.27L18.16 15.27Q18.80 14.84 19.42 14.16L19.42 14.16L19.42 14.16Q20.03 13.48 20.54 12.69L20.54 12.69L20.54 12.69Q21.04 11.90 21.39 11.05L21.39 11.05L21.39 11.05Q21.74 10.19 21.87 9.41L21.87 9.41L21.87 9.41Q21.87 9.24 21.69 9.18L21.69 9.18L21.69 9.18Q21.49 9.18 21.15 9.53L21.15 9.53L21.15 9.53Q20.80 9.87 20.39 10.40L20.39 10.40L20.39 10.40Q19.98 10.93 19.55 11.59L19.55 11.59L19.55 11.59Q19.12 12.25 18.77 12.90L18.77 12.90L18.77 12.90Q18.42 13.55 18.18 14.12L18.18 14.12L18.18 14.12Q17.93 14.69 17.91 15.04L17.91 15.04L17.91 15.04Q17.77 15.04 17.67 14.76L17.67 14.76L17.67 14.76Q17.64 14.69 17.57 14.61L17.57 14.61L17.57 14.61Q17.50 14.53 17.35 14.42L17.35 14.42L17.35 14.42Q17.28 14.36 17.21 14.29L17.21 14.29L17.21 14.29Q17.14 14.21 17.11 14.15L17.11 14.15L17.11 14.15Q17.05 14.04 17.05 13.79L17.05 13.79L17.05 13.79Q17.05 12.96 17.26 11.93L17.26 11.93L17.26 11.93Q17.47 10.89 17.81 9.81L17.81 9.81L17.81 9.81Q18.16 8.74 18.62 7.69L18.62 7.69L18.62 7.69Q19.08 6.65 19.58 5.78L19.58 5.78L19.58 5.78Q20.08 4.91 20.58 4.31L20.58 4.31L20.58 4.31Q21.08 3.71 21.53 3.51L21.53 3.51L21.53 3.51Q21.67 3.56 21.87 3.65L21.87 3.65L21.87 3.65Q22.06 3.75 22.26 3.88L22.26 3.88L22.26 3.88Q22.46 4.00 22.63 4.13L22.63 4.13L22.63 4.13Q22.81 4.26 22.89 4.35L22.89 4.35L22.89 4.35Q21.35 5.60 20.22 7.55L20.22 7.55L20.22 7.55Q19.10 9.51 18.38 12.17L18.38 12.17L18.38 12.17Q18.77 11.44 19.26 10.76L19.26 10.76L19.26 10.76Q19.75 10.08 20.24 9.56L20.24 9.56L20.24 9.56Q20.72 9.04 21.16 8.74L21.16 8.74L21.16 8.74Q21.60 8.43 21.90 8.43L21.90 8.43L21.90 8.43Q22.12 8.48 22.33 8.62L22.33 8.62L22.33 8.62Q22.54 8.76 22.71 8.97L22.71 8.97L22.71 8.97Q22.88 9.17 22.99 9.40L22.99 9.40L22.99 9.40Q23.10 9.63 23.13 9.88L23.13 9.88L23.13 9.88Q23.11 10.47 22.92 11.14L22.92 11.14L22.92 11.14Q22.74 11.80 22.42 12.45L22.42 12.45L22.42 12.45Q22.11 13.09 21.71 13.68L21.71 13.68L21.71 13.68Q21.31 14.27 20.87 14.71L20.87 14.71L20.87 14.71Q20.43 15.15 19.98 15.41L19.98 15.41L19.98 15.41Q19.54 15.68 19.15 15.68L19.15 15.68L19.15 15.68Q18.98 15.68 18.81 15.64L18.81 15.64L18.81 15.64Q18.63 15.61 18.49 15.55L18.49 15.55L18.49 15.55Q18.34 15.48 18.25 15.41L18.25 15.41L18.25 15.41Q18.16 15.34 18.16 15.27ZM33.53 8.64L33.53 8.64L33.53 8.64Q33.81 8.64 34.17 8.81L34.17 8.81L34.17 8.81Q34.54 8.97 34.82 9.24L34.82 9.24L34.82 9.24Q34.75 8.68 34.64 8.18L34.64 8.18L34.64 8.18Q34.54 7.69 34.33 7.15L34.33 7.15L34.33 7.15Q34.13 6.62 33.80 5.99L33.80 5.99L33.80 5.99Q33.46 5.36 32.96 4.55L32.96 4.55L32.96 4.55Q33.00 4.42 33.14 4.26L33.14 4.26L33.14 4.26Q33.29 4.09 33.48 3.94L33.48 3.94L33.48 3.94Q33.67 3.79 33.87 3.68L33.87 3.68L33.87 3.68Q34.08 3.57 34.26 3.54L34.26 3.54L34.26 3.54Q34.65 3.98 35 4.63L35 4.63L35 4.63Q35.35 5.28 35.62 6.03L35.62 6.03L35.62 6.03Q35.88 6.78 36.03 7.57L36.03 7.57L36.03 7.57Q36.18 8.37 36.18 9.10L36.18 9.10L36.18 9.10Q36.18 9.83 36.02 10.60L36.02 10.60L36.02 10.60Q35.85 11.37 35.57 12.10L35.57 12.10L35.57 12.10Q35.28 12.84 34.90 13.50L34.90 13.50L34.90 13.50Q34.52 14.15 34.08 14.67L34.08 14.67L34.08 14.67Q33.64 15.19 33.17 15.52L33.17 15.52L33.17 15.52Q32.69 15.85 32.21 15.93L32.21 15.93L32.21 15.93Q31.25 15.82 30.74 15.31L30.74 15.31L30.74 15.31Q30.23 14.80 30.23 13.90L30.23 13.90L30.23 13.90Q30.23 13.43 30.37 12.87L30.37 12.87L30.37 12.87Q30.52 12.31 30.76 11.75L30.76 11.75L30.76 11.75Q31.01 11.20 31.34 10.68L31.34 10.68L31.34 10.68Q31.67 10.15 32.04 9.73L32.04 9.73L32.04 9.73Q32.41 9.31 32.79 9.02L32.79 9.02L32.79 9.02Q33.17 8.72 33.53 8.64ZM32.10 15.37L32.10 15.37L32.10 15.37Q32.59 15.20 33.08 14.63L33.08 14.63L33.08 14.63Q33.57 14.06 33.96 13.28L33.96 13.28L33.96 13.28Q34.36 12.50 34.60 11.61L34.60 11.61L34.60 11.61Q34.85 10.72 34.85 9.90L34.85 9.90L34.85 9.90Q34.85 9.66 34.85 9.60L34.85 9.60L34.85 9.60Q34.85 9.55 34.83 9.49L34.83 9.49L34.83 9.49Q34.50 9.63 34.12 9.97L34.12 9.97L34.12 9.97Q33.74 10.30 33.36 10.75L33.36 10.75L33.36 10.75Q32.98 11.19 32.65 11.70L32.65 11.70L32.65 11.70Q32.31 12.22 32.05 12.74L32.05 12.74L32.05 12.74Q31.78 13.26 31.63 13.73L31.63 13.73L31.63 13.73Q31.47 14.21 31.47 14.57L31.47 14.57L31.47 14.57Q31.47 15.27 32.10 15.37ZM48.37 9.52L48.37 9.52L48.37 9.52Q48.51 9.52 48.70 9.57L48.70 9.57L48.70 9.57Q48.89 9.62 49.04 9.70L49.04 9.70L49.04 9.70Q49.20 9.77 49.30 9.86L49.30 9.86L49.30 9.86Q49.41 9.94 49.41 10.01L49.41 10.01L49.41 10.01Q49.13 10.60 48.89 11.19L48.89 11.19L48.89 11.19Q48.65 11.79 48.48 12.33L48.48 12.33L48.48 12.33Q48.31 12.88 48.22 13.36L48.22 13.36L48.22 13.36Q48.13 13.83 48.13 14.18L48.13 14.18L48.13 14.18Q48.13 14.57 48.22 14.83L48.22 14.83L48.22 14.83Q48.30 15.09 48.50 15.20L48.50 15.20L48.50 15.20Q48.33 15.32 48.06 15.39L48.06 15.39L48.06 15.39Q47.80 15.46 47.59 15.46L47.59 15.46L47.59 15.46Q46.83 15.46 46.83 14.42L46.83 14.42L46.83 14.42Q46.83 13.62 47.36 12.24L47.36 12.24L47.36 12.24Q47.08 12.88 46.72 13.45L46.72 13.45L46.72 13.45Q46.35 14.01 45.98 14.45L45.98 14.45L45.98 14.45Q45.60 14.88 45.21 15.15L45.21 15.15L45.21 15.15Q44.83 15.43 44.51 15.48L44.51 15.48L44.51 15.48Q43.99 15.46 43.67 14.99L43.67 14.99L43.67 14.99Q43.34 14.52 43.34 13.79L43.34 13.79L43.34 13.79Q43.34 13.01 43.68 12.14L43.68 12.14L43.68 12.14Q44.02 11.27 44.54 10.53L44.54 10.53L44.54 10.53Q45.07 9.79 45.68 9.29L45.68 9.29L45.68 9.29Q46.30 8.79 46.87 8.76L46.87 8.76L46.87 8.76Q47.01 8.81 47.19 8.93L47.19 8.93L47.19 8.93Q47.36 9.06 47.52 9.23L47.52 9.23L47.52 9.23Q47.68 9.39 47.80 9.57L47.80 9.57L47.80 9.57Q47.91 9.74 47.92 9.87L47.92 9.87L47.92 9.87Q47.36 9.95 46.77 10.42L46.77 10.42L46.77 10.42Q46.17 10.88 45.69 11.53L45.69 11.53L45.69 11.53Q45.21 12.18 44.90 12.92L44.90 12.92L44.90 12.92Q44.59 13.66 44.59 14.31L44.59 14.31L44.59 14.31Q44.59 14.57 44.79 14.64L44.79 14.64L44.79 14.64Q45.19 14.56 45.72 13.95L45.72 13.95L45.72 13.95Q46.26 13.34 47.01 12.07L47.01 12.07L47.01 12.07Q47.15 11.82 47.33 11.51L47.33 11.51L47.33 11.51Q47.50 11.20 47.68 10.86L47.68 10.86L47.68 10.86Q47.87 10.53 48.04 10.18L48.04 10.18L48.04 10.18Q48.22 9.84 48.37 9.52ZM57.11 14.28L57.11 14.28L57.11 14.28Q57.11 13.66 57.40 12.55L57.40 12.55L57.40 12.55Q57.69 11.44 58.23 9.95L58.23 9.95L58.23 9.95Q59.09 7.59 59.86 6.01L59.86 6.01L59.86 6.01Q60.62 4.44 61.35 3.56L61.35 3.56L61.35 3.56Q61.52 3.58 61.76 3.70L61.76 3.70L61.76 3.70Q62.01 3.81 62.24 3.94L62.24 3.94L62.24 3.94Q62.48 4.07 62.67 4.21L62.67 4.21L62.67 4.21Q62.86 4.35 62.92 4.44L62.92 4.44L62.92 4.44Q61.82 5.73 61.00 7.21L61.00 7.21L61.00 7.21Q60.17 8.69 59.49 10.61L59.49 10.61L59.49 10.61Q58.90 12.26 58.59 13.59L58.59 13.59L58.59 13.59Q58.28 14.91 58.28 15.79L58.28 15.79L58.28 15.79Q58.28 16.03 58.28 16.09L58.28 16.09L58.28 16.09Q58.28 16.14 58.30 16.20L58.30 16.20L58.30 16.20Q58.10 16.17 57.96 16.10L57.96 16.10L57.96 16.10Q57.82 16.03 57.78 15.93L57.78 15.93L57.78 15.93Q57.75 15.86 57.62 15.73L57.62 15.73L57.62 15.73Q57.50 15.60 57.40 15.53L57.40 15.53L57.40 15.53Q57.27 15.44 57.19 15.09L57.19 15.09L57.19 15.09Q57.11 14.73 57.11 14.28ZM67.41 14.28L67.41 14.28L67.41 14.28Q67.41 13.66 67.70 12.55L67.70 12.55L67.70 12.55Q68.00 11.44 68.53 9.95L68.53 9.95L68.53 9.95Q69.40 7.59 70.16 6.01L70.16 6.01L70.16 6.01Q70.92 4.44 71.65 3.56L71.65 3.56L71.65 3.56Q71.82 3.58 72.06 3.70L72.06 3.70L72.06 3.70Q72.31 3.81 72.55 3.94L72.55 3.94L72.55 3.94Q72.79 4.07 72.98 4.21L72.98 4.21L72.98 4.21Q73.16 4.35 73.22 4.44L73.22 4.44L73.22 4.44Q72.13 5.73 71.30 7.21L71.30 7.21L71.30 7.21Q70.48 8.69 69.79 10.61L69.79 10.61L69.79 10.61Q69.20 12.26 68.89 13.59L68.89 13.59L68.89 13.59Q68.59 14.91 68.59 15.79L68.59 15.79L68.59 15.79Q68.59 16.03 68.59 16.09L68.59 16.09L68.59 16.09Q68.59 16.14 68.60 16.20L68.60 16.20L68.60 16.20Q68.40 16.17 68.26 16.10L68.26 16.10L68.26 16.10Q68.12 16.03 68.08 15.93L68.08 15.93L68.08 15.93Q68.05 15.86 67.93 15.73L67.93 15.73L67.93 15.73Q67.80 15.60 67.70 15.53L67.70 15.53L67.70 15.53Q67.58 15.44 67.49 15.09L67.49 15.09L67.49 15.09Q67.41 14.73 67.41 14.28ZM82.50 9.52L82.50 9.52L82.50 9.52Q82.64 9.52 82.83 9.57L82.83 9.57L82.83 9.57Q83.02 9.62 83.17 9.70L83.17 9.70L83.17 9.70Q83.33 9.77 83.43 9.86L83.43 9.86L83.43 9.86Q83.54 9.94 83.54 10.01L83.54 10.01L83.54 10.01Q83.26 10.60 83.02 11.19L83.02 11.19L83.02 11.19Q82.78 11.79 82.61 12.33L82.61 12.33L82.61 12.33Q82.45 12.88 82.36 13.36L82.36 13.36L82.36 13.36Q82.26 13.83 82.26 14.18L82.26 14.18L82.26 14.18Q82.26 14.57 82.35 14.83L82.35 14.83L82.35 14.83Q82.43 15.09 82.63 15.20L82.63 15.20L82.63 15.20Q82.46 15.32 82.19 15.39L82.19 15.39L82.19 15.39Q81.93 15.46 81.72 15.46L81.72 15.46L81.72 15.46Q80.96 15.46 80.96 14.42L80.96 14.42L80.96 14.42Q80.96 13.62 81.49 12.24L81.49 12.24L81.49 12.24Q81.21 12.88 80.85 13.45L80.85 13.45L80.85 13.45Q80.49 14.01 80.11 14.45L80.11 14.45L80.11 14.45Q79.73 14.88 79.35 15.15L79.35 15.15L79.35 15.15Q78.96 15.43 78.64 15.48L78.64 15.48L78.64 15.48Q78.12 15.46 77.80 14.99L77.80 14.99L77.80 14.99Q77.48 14.52 77.48 13.79L77.48 13.79L77.48 13.79Q77.48 13.01 77.81 12.14L77.81 12.14L77.81 12.14Q78.15 11.27 78.67 10.53L78.67 10.53L78.67 10.53Q79.20 9.79 79.81 9.29L79.81 9.29L79.81 9.29Q80.43 8.79 81.00 8.76L81.00 8.76L81.00 8.76Q81.14 8.81 81.32 8.93L81.32 8.93L81.32 8.93Q81.49 9.06 81.66 9.23L81.66 9.23L81.66 9.23Q81.82 9.39 81.93 9.57L81.93 9.57L81.93 9.57Q82.04 9.74 82.05 9.87L82.05 9.87L82.05 9.87Q81.49 9.95 80.90 10.42L80.90 10.42L80.90 10.42Q80.30 10.88 79.82 11.53L79.82 11.53L79.82 11.53Q79.34 12.18 79.03 12.92L79.03 12.92L79.03 12.92Q78.72 13.66 78.72 14.31L78.72 14.31L78.72 14.31Q78.72 14.57 78.92 14.64L78.92 14.64L78.92 14.64Q79.32 14.56 79.86 13.95L79.86 13.95L79.86 13.95Q80.39 13.34 81.14 12.07L81.14 12.07L81.14 12.07Q81.28 11.82 81.46 11.51L81.46 11.51L81.46 11.51Q81.63 11.20 81.82 10.86L81.82 10.86L81.82 10.86Q82.00 10.53 82.17 10.18L82.17 10.18L82.17 10.18Q82.35 9.84 82.50 9.52ZM91.24 14.94L91.24 14.94L91.24 14.94Q91.24 14.45 91.34 13.78L91.34 13.78L91.34 13.78Q91.43 13.12 91.62 12.36L91.62 12.36L91.62 12.36Q91.81 11.61 92.07 10.78L92.07 10.78L92.07 10.78Q92.33 9.95 92.65 9.13L92.65 9.13L92.65 9.13Q92.93 8.39 93.30 7.63L93.30 7.63L93.30 7.63Q93.67 6.87 94.11 6.15L94.11 6.15L94.11 6.15Q94.54 5.42 95.01 4.76L95.01 4.76L95.01 4.76Q95.48 4.10 95.96 3.56L95.96 3.56L95.96 3.56Q96.18 3.56 96.44 3.61L96.44 3.61L96.44 3.61Q96.70 3.67 96.94 3.76L96.94 3.76L96.94 3.76Q97.19 3.85 97.39 3.98L97.39 3.98L97.39 3.98Q97.59 4.10 97.72 4.23L97.72 4.23L97.72 4.23Q96.67 5.31 95.83 6.40L95.83 6.40L95.83 6.40Q94.99 7.50 94.50 8.47L94.50 8.47L94.50 8.47Q94.23 9.00 94.02 9.46L94.02 9.46L94.02 9.46Q93.80 9.93 93.62 10.38L93.62 10.38L93.62 10.38Q93.44 10.84 93.29 11.29L93.29 11.29L93.29 11.29Q93.14 11.75 93.02 12.25L93.02 12.25L93.02 12.25Q95.70 8.82 97.01 8.82L97.01 8.82L97.01 8.82Q97.37 8.82 97.79 9.06L97.79 9.06L97.79 9.06Q98.21 9.30 98.53 9.70L98.53 9.70L98.53 9.70Q98.10 10.18 97.64 10.85L97.64 10.85L97.64 10.85Q97.17 11.52 96.79 12.20L96.79 12.20L96.79 12.20Q96.40 12.88 96.16 13.46L96.16 13.46L96.16 13.46Q95.91 14.04 95.91 14.32L95.91 14.32L95.91 14.32Q95.91 14.46 95.96 14.51L95.96 14.51L95.96 14.51Q96.00 14.56 96.14 14.56L96.14 14.56L96.14 14.56Q96.35 14.56 96.47 14.50L96.47 14.50L96.47 14.50Q96.60 14.45 96.63 14.45L96.63 14.45L96.63 14.45Q96.70 14.56 96.71 14.60L96.71 14.60L96.71 14.60Q96.73 14.64 96.73 14.67L96.73 14.67L96.73 14.67Q96.73 14.73 96.56 14.83L96.56 14.83L96.56 14.83Q96.39 14.94 96.16 15.04L96.16 15.04L96.16 15.04Q95.93 15.15 95.70 15.23L95.70 15.23L95.70 15.23Q95.48 15.32 95.37 15.32L95.37 15.32L95.37 15.32Q95.23 15.32 95.09 15.24L95.09 15.24L95.09 15.24Q94.95 15.16 94.84 15.04L94.84 15.04L94.84 15.04Q94.74 14.91 94.68 14.76L94.68 14.76L94.68 14.76Q94.61 14.60 94.61 14.43L94.61 14.43L94.61 14.43Q94.61 14.22 94.73 13.81L94.73 13.81L94.73 13.81Q94.85 13.40 95.06 12.85L95.06 12.85L95.06 12.85Q95.27 12.29 95.56 11.63L95.56 11.63L95.56 11.63Q95.86 10.98 96.19 10.29L96.19 10.29L96.19 10.29Q96.19 10.23 96.14 10.23L96.14 10.23L96.14 10.23Q96.10 10.23 95.92 10.35L95.92 10.35L95.92 10.35Q95.75 10.46 95.59 10.57L95.59 10.57L95.59 10.57Q95.09 10.95 94.58 11.50L94.58 11.50L94.58 11.50Q94.07 12.05 93.58 12.71L93.58 12.71L93.58 12.71Q93.10 13.37 92.67 14.11L92.67 14.11L92.67 14.11Q92.25 14.84 91.94 15.58L91.94 15.58L91.94 15.58Q91.90 15.68 91.81 15.76L91.81 15.76L91.81 15.76Q91.73 15.85 91.67 15.85L91.67 15.85L91.67 15.85Q91.63 15.85 91.55 15.75L91.55 15.75L91.55 15.75Q91.48 15.65 91.41 15.51L91.41 15.51L91.41 15.51Q91.35 15.36 91.29 15.20L91.29 15.20L91.29 15.20Q91.24 15.05 91.24 14.94Z"></path></g></svg>